<?xml version="1.0" encoding="utf-8"?>
<svg xmlns="http://www.w3.org/2000/svg" xmlns:xlink="http://www.w3.org/1999/xlink" style="margin: auto; background: none; display: block; z-index: 1; position: relative; shape-rendering: auto;" width="3000" height="2000" preserveAspectRatio="xMidYMid" viewBox="0 0 3000 2000">
<g transform="translate(1500,1000) scale(1,1) translate(-1500,-1000)"><defs>
  <path id="path-5eeu484j7jl-1" d="M-35 -35L35 -35L35 35L-35 35Z" fill="none" stroke="inherit" stroke-width="4.333333333333334" transform="scale(0.3)"></path>
  <path id="path-5eeu484j7jl-2" d="M0 -37A37 37 0 0 1 0 37A37 37 0 0 1 0 -37" fill="none" stroke="inherit" stroke-width="4.333333333333334" transform="scale(0.3)"></path>
  <path id="path-5eeu484j7jl-3" d="M0 -34.641L40 34.641L-40 34.641Z" fill="none" stroke="inherit" stroke-width="4.333333333333334" transform="scale(0.3)"></path>
</defs><path id="path0" d="M 79.28512454249369 1828.5004579561837
c 0 61.15719576131683 -14.963994707556243 17.56642856973994 -32.53042327729618 17.56642856973994
S 14.224277987901331 1889.6576537175006 14.224277987901331 1828.5004579561837
s 14.963994707556243 -17.56642856973994 32.53042327729618 -17.56642856973994
S 79.28512454249369 1767.3432621948668 79.28512454249369 1828.5004579561837
z" fill="none" stroke="none"></path>
<use xlink:href="#path-5eeu484j7jl-2" x="0" y="0" stroke="#94abc2">
  <animateMotion begin="-12.689827542932955s" dur="14.285714285714285s" keyPoints="1;0" keyTimes="0;1" repeatCount="indefinite" calcMode="linear">
    <mpath xlink:href="#path0"></mpath>
  </animateMotion>
</use><path id="path1" d="M 153.171115284967 81.4327322279216
c 0 32.52756263470393 -7.958871708491386 9.343023309968151 -17.301895018459536 9.343023309968151
S 118.56732524804792 113.96029486262555 118.56732524804792 81.4327322279216
s 7.958871708491386 -9.343023309968151 17.301895018459536 -9.343023309968151
S 153.171115284967 48.90516959321767 153.171115284967 81.4327322279216
z" fill="none" stroke="none"></path>
<use xlink:href="#path-5eeu484j7jl-1" x="0" y="0" stroke="#601429">
  <animateMotion begin="-10.862568922626057s" dur="14.285714285714285s" keyPoints="1;0" keyTimes="0;1" repeatCount="indefinite" calcMode="linear">
    <mpath xlink:href="#path1"></mpath>
  </animateMotion>
</use><path id="path2" d="M 263.6697592523053 1554.511082351492
c 0 22.20830284972682 -5.433946441954434 6.378980605772597 -11.812927047727031 6.378980605772597
S 240.04390515685125 1576.7193852012188 240.04390515685125 1554.511082351492
s 5.433946441954434 -6.378980605772597 11.812927047727031 -6.378980605772597
S 263.6697592523053 1532.3027795017651 263.6697592523053 1554.511082351492
z" fill="none" stroke="none"></path>
<use xlink:href="#path-5eeu484j7jl-1" x="0" y="0" stroke="#39bf5b">
  <animateMotion begin="-0.8522554514462868s" dur="14.285714285714285s" keyPoints="0;1" keyTimes="0;1" repeatCount="indefinite" calcMode="linear">
    <mpath xlink:href="#path2"></mpath>
  </animateMotion>
</use><path id="path3" d="M 301.9912708756131 998.1665119315182
c 0 60.18766704644152 -14.726769596469731 17.287946917594905 -32.01471651406464 17.287946917594905
S 237.96183784748385 1058.3541789779597 237.96183784748385 998.1665119315182
s 14.726769596469731 -17.287946917594905 32.01471651406464 -17.287946917594905
S 301.9912708756131 937.9788448850767 301.9912708756131 998.1665119315182
z" fill="none" stroke="none"></path>
<use xlink:href="#path-5eeu484j7jl-1" x="0" y="0" stroke="#39bf5b">
  <animateMotion begin="-1.4355913500160489s" dur="14.285714285714285s" keyPoints="0;1" keyTimes="0;1" repeatCount="indefinite" calcMode="linear">
    <mpath xlink:href="#path3"></mpath>
  </animateMotion>
</use><path id="path4" d="M 365.2349024663741 183.4801693824242
c 0 22.85476931641598 -5.592124407208165 6.564667782374803 -12.156792189582967 6.564667782374803
S 340.92131808720814 206.33493869884018 340.92131808720814 183.4801693824242
s 5.592124407208165 -6.564667782374803 12.156792189582967 -6.564667782374803
S 365.2349024663741 160.62540006600824 365.2349024663741 183.4801693824242
z" fill="none" stroke="none"></path>
<use xlink:href="#path-5eeu484j7jl-1" x="0" y="0" stroke="#39bf5b">
  <animateMotion begin="-9.208999905350906s" dur="14.285714285714285s" keyPoints="1;0" keyTimes="0;1" repeatCount="indefinite" calcMode="linear">
    <mpath xlink:href="#path4"></mpath>
  </animateMotion>
</use><path id="path5" d="M 462.10997323485833 338.6919370731333
c 0 38.80081815584025 -9.49381720834389 11.144915853273263 -20.638733061617152 11.144915853273263
S 420.83250711162407 377.4927552289736 420.83250711162407 338.6919370731333
s 9.49381720834389 -11.144915853273263 20.638733061617152 -11.144915853273263
S 462.10997323485833 299.89111891729306 462.10997323485833 338.6919370731333
z" fill="none" stroke="none"></path>
<use xlink:href="#path-5eeu484j7jl-3" x="0" y="0" stroke="#54d474">
  <animateMotion begin="-0.11942756714815911s" dur="14.285714285714285s" keyPoints="0;1" keyTimes="0;1" repeatCount="indefinite" calcMode="linear">
    <mpath xlink:href="#path5"></mpath>
  </animateMotion>
</use><path id="path6" d="M 601.4825372178527 344.9884425112253
c 0 33.39244407118993 -8.170491634440088 9.591446701299235 -17.761938335739323 9.591446701299235
S 565.9586605463742 378.3808865824152 565.9586605463742 344.9884425112253
s 8.170491634440088 -9.591446701299235 17.761938335739323 -9.591446701299235
S 601.4825372178527 311.5959984400354 601.4825372178527 344.9884425112253
z" fill="none" stroke="none"></path>
<use xlink:href="#path-5eeu484j7jl-1" x="0" y="0" stroke="#94abc2">
  <animateMotion begin="-7.876690587363434s" dur="14.285714285714285s" keyPoints="1;0" keyTimes="0;1" repeatCount="indefinite" calcMode="linear">
    <mpath xlink:href="#path6"></mpath>
  </animateMotion>
</use><path id="path7" d="M 624.1964062838474 756.840049567136
c 0 58.83618888744301 -14.396088770331799 16.899756382563417 -31.295845152895218 16.899756382563417
S 561.6047159780569 815.676238454579 561.6047159780569 756.840049567136
s 14.396088770331799 -16.899756382563417 31.295845152895218 -16.899756382563417
S 624.1964062838474 698.003860679693 624.1964062838474 756.840049567136
z" fill="none" stroke="none"></path>
<use xlink:href="#path-5eeu484j7jl-1" x="0" y="0" stroke="#39bf5b">
  <animateMotion begin="-7.6373946417296485s" dur="14.285714285714285s" keyPoints="1;0" keyTimes="0;1" repeatCount="indefinite" calcMode="linear">
    <mpath xlink:href="#path7"></mpath>
  </animateMotion>
</use><path id="path8" d="M 700.3425060050088 1921.0039303913088
c 0 61.5832580557942 -15.068243992375175 17.688808164962165 -32.75705215733734 17.688808164962165
S 634.8284016903342 1982.587188447103 634.8284016903342 1921.0039303913088
s 15.068243992375175 -17.688808164962165 32.75705215733734 -17.688808164962165
S 700.3425060050088 1859.4206723355146 700.3425060050088 1921.0039303913088
z" fill="none" stroke="none"></path>
<use xlink:href="#path-5eeu484j7jl-1" x="0" y="0" stroke="#94abc2">
  <animateMotion begin="-13.72199300753883s" dur="14.285714285714285s" keyPoints="0;1" keyTimes="0;1" repeatCount="indefinite" calcMode="linear">
    <mpath xlink:href="#path8"></mpath>
  </animateMotion>
</use><path id="path9" d="M 819.2501019492992 126.21469656132965
c 0 29.338469747124215 -7.178561746636776 8.427007267790998 -15.605569014427774 8.427007267790998
S 788.0389639204435 155.55316630845385 788.0389639204435 126.21469656132965
s 7.178561746636776 -8.427007267790998 15.605569014427774 -8.427007267790998
S 819.2501019492992 96.87622681420544 819.2501019492992 126.21469656132965
z" fill="none" stroke="none"></path>
<use xlink:href="#path-5eeu484j7jl-1" x="0" y="0" stroke="#39bf5b">
  <animateMotion begin="-2.1488907562044104s" dur="14.285714285714285s" keyPoints="0;1" keyTimes="0;1" repeatCount="indefinite" calcMode="linear">
    <mpath xlink:href="#path9"></mpath>
  </animateMotion>
</use><path id="path10" d="M 846.9262018747938 973.890612306817
c 0 43.47855784596407 -10.63837053677844 12.48852193447904 -23.12689247125748 12.48852193447904
S 800.6724169322788 1017.3691701527811 800.6724169322788 973.890612306817
s 10.63837053677844 -12.48852193447904 23.12689247125748 -12.48852193447904
S 846.9262018747938 930.412054460853 846.9262018747938 973.890612306817
z" fill="none" stroke="none"></path>
<use xlink:href="#path-5eeu484j7jl-3" x="0" y="0" stroke="#39bf5b">
  <animateMotion begin="-4.324015051090946s" dur="14.285714285714285s" keyPoints="0;1" keyTimes="0;1" repeatCount="indefinite" calcMode="linear">
    <mpath xlink:href="#path10"></mpath>
  </animateMotion>
</use><path id="path11" d="M 995.8302922394092 502.6951555162315
c 0 57.98592819284664 -14.188046259951836 16.65553256603042 -30.843578825982256 16.65553256603042
S 934.1431345874447 560.6810837090782 934.1431345874447 502.6951555162315
s 14.188046259951836 -16.65553256603042 30.843578825982256 -16.65553256603042
S 995.8302922394092 444.7092273233849 995.8302922394092 502.6951555162315
z" fill="none" stroke="none"></path>
<use xlink:href="#path-5eeu484j7jl-2" x="0" y="0" stroke="#94abc2">
  <animateMotion begin="-2.2140766599744652s" dur="14.285714285714285s" keyPoints="1;0" keyTimes="0;1" repeatCount="indefinite" calcMode="linear">
    <mpath xlink:href="#path11"></mpath>
  </animateMotion>
</use><path id="path12" d="M 1032.1646041821236 126.33103900790333
c 0 42.97741927074178 -10.515751523692137 12.344577875638596 -22.86032939933073 12.344577875638596
S 986.4439453834622 169.3084582786451 986.4439453834622 126.33103900790333
s 10.515751523692137 -12.344577875638596 22.86032939933073 -12.344577875638596
S 1032.1646041821236 83.35361973716155 1032.1646041821236 126.33103900790333
z" fill="none" stroke="none"></path>
<use xlink:href="#path-5eeu484j7jl-2" x="0" y="0" stroke="#54d474">
  <animateMotion begin="-10.173514307794955s" dur="14.285714285714285s" keyPoints="0;1" keyTimes="0;1" repeatCount="indefinite" calcMode="linear">
    <mpath xlink:href="#path12"></mpath>
  </animateMotion>
</use><path id="path13" d="M 1129.094825058259 1968.7383668883467
c 0 37.45145696085511 -9.16365436276242 10.757333382373277 -19.920987745135697 10.757333382373277
S 1089.2528495679874 2006.1898238492017 1089.2528495679874 1968.7383668883467
s 9.16365436276242 -10.757333382373277 19.920987745135697 -10.757333382373277
S 1129.094825058259 1931.2869099274917 1129.094825058259 1968.7383668883467
z" fill="none" stroke="none"></path>
<use xlink:href="#path-5eeu484j7jl-1" x="0" y="0" stroke="#39bf5b">
  <animateMotion begin="-9.696696310909429s" dur="14.285714285714285s" keyPoints="0;1" keyTimes="0;1" repeatCount="indefinite" calcMode="linear">
    <mpath xlink:href="#path13"></mpath>
  </animateMotion>
</use><path id="path14" d="M 1235.2699874278417 1442.720939652762
c 0 53.35821312291556 -13.055732998160188 15.32629525870979 -28.38202825686998 15.32629525870979
S 1178.5059309141018 1496.0791527756774 1178.5059309141018 1442.720939652762
s 13.055732998160188 -15.32629525870979 28.38202825686998 -15.32629525870979
S 1235.2699874278417 1389.3627265298464 1235.2699874278417 1442.720939652762
z" fill="none" stroke="none"></path>
<use xlink:href="#path-5eeu484j7jl-2" x="0" y="0" stroke="#39bf5b">
  <animateMotion begin="-7.247300338122019s" dur="14.285714285714285s" keyPoints="1;0" keyTimes="0;1" repeatCount="indefinite" calcMode="linear">
    <mpath xlink:href="#path14"></mpath>
  </animateMotion>
</use><path id="path15" d="M 1315.7607556595715 175.92822855598735
c 0 63.518528839098614 -15.541767694673062 18.24468381548577 -33.786451510158834 18.24468381548577
S 1248.1878526392536 239.44675739508597 1248.1878526392536 175.92822855598735
s 15.541767694673062 -18.24468381548577 33.786451510158834 -18.24468381548577
S 1315.7607556595715 112.40969971688872 1315.7607556595715 175.92822855598735
z" fill="none" stroke="none"></path>
<use xlink:href="#path-5eeu484j7jl-2" x="0" y="0" stroke="#94abc2">
  <animateMotion begin="-11.705762148040636s" dur="14.285714285714285s" keyPoints="1;0" keyTimes="0;1" repeatCount="indefinite" calcMode="linear">
    <mpath xlink:href="#path15"></mpath>
  </animateMotion>
</use><path id="path16" d="M 1401.7387546437703 1806.2516914277335
c 0 56.47649017260658 -13.818715680531396 16.22197058149338 -30.040686262024778 16.22197058149338
S 1341.6573821197208 1862.7281816003401 1341.6573821197208 1806.2516914277335
s 13.818715680531396 -16.22197058149338 30.040686262024778 -16.22197058149338
S 1401.7387546437703 1749.7752012551268 1401.7387546437703 1806.2516914277335
z" fill="none" stroke="none"></path>
<use xlink:href="#path-5eeu484j7jl-3" x="0" y="0" stroke="#39bf5b">
  <animateMotion begin="-4.503070199268981s" dur="14.285714285714285s" keyPoints="0;1" keyTimes="0;1" repeatCount="indefinite" calcMode="linear">
    <mpath xlink:href="#path16"></mpath>
  </animateMotion>
</use><path id="path17" d="M 1437.9772204877013 1195.1880599711699
c 0 39.85404821791707 -9.751522436298854 11.447439381742136 -21.198961818040992 11.447439381742136
S 1395.5792968516193 1235.042108189087 1395.5792968516193 1195.1880599711699
s 9.751522436298854 -11.447439381742136 21.198961818040992 -11.447439381742136
S 1437.9772204877013 1155.3340117532528 1437.9772204877013 1195.1880599711699
z" fill="none" stroke="none"></path>
<use xlink:href="#path-5eeu484j7jl-1" x="0" y="0" stroke="#39bf5b">
  <animateMotion begin="-10.761731014921034s" dur="14.285714285714285s" keyPoints="1;0" keyTimes="0;1" repeatCount="indefinite" calcMode="linear">
    <mpath xlink:href="#path17"></mpath>
  </animateMotion>
</use><path id="path18" d="M 1548.0687024368606 774.5370446440741
c 0 34.11477758837213 -8.347232814176158 9.798925477511142 -18.1461582916873 9.798925477511142
S 1511.776385853486 808.6518222324462 1511.776385853486 774.5370446440741
s 8.347232814176158 -9.798925477511142 18.1461582916873 -9.798925477511142
S 1548.0687024368606 740.4222670557019 1548.0687024368606 774.5370446440741
z" fill="none" stroke="none"></path>
<use xlink:href="#path-5eeu484j7jl-1" x="0" y="0" stroke="#39bf5b">
  <animateMotion begin="-11.043878385961616s" dur="14.285714285714285s" keyPoints="1;0" keyTimes="0;1" repeatCount="indefinite" calcMode="linear">
    <mpath xlink:href="#path18"></mpath>
  </animateMotion>
</use><path id="path19" d="M 1645.4245285767756 1867.8227115226425
c 0 57.677239099947755 -14.112515949987216 16.566866549984994 -30.67938249997221 16.566866549984994
S 1584.0657635768312 1925.4999506225902 1584.0657635768312 1867.8227115226425
s 14.112515949987216 -16.566866549984994 30.67938249997221 -16.566866549984994
S 1645.4245285767756 1810.1454724226949 1645.4245285767756 1867.8227115226425
z" fill="none" stroke="none"></path>
<use xlink:href="#path-5eeu484j7jl-2" x="0" y="0" stroke="#54d474">
  <animateMotion begin="-9.979577496101644s" dur="14.285714285714285s" keyPoints="1;0" keyTimes="0;1" repeatCount="indefinite" calcMode="linear">
    <mpath xlink:href="#path19"></mpath>
  </animateMotion>
</use><path id="path20" d="M 1701.320230842288 1054.0432459966357
c 0 49.107638601915006 -12.015698806851542 14.105385555869203 -26.121084362720744 14.105385555869203
S 1649.0780621168467 1103.1508845985506 1649.0780621168467 1054.0432459966357
s 12.015698806851542 -14.105385555869203 26.121084362720744 -14.105385555869203
S 1701.320230842288 1004.9356073947207 1701.320230842288 1054.0432459966357
z" fill="none" stroke="none"></path>
<use xlink:href="#path-5eeu484j7jl-2" x="0" y="0" stroke="#94abc2">
  <animateMotion begin="-6.750187482990166s" dur="14.285714285714285s" keyPoints="0;1" keyTimes="0;1" repeatCount="indefinite" calcMode="linear">
    <mpath xlink:href="#path20"></mpath>
  </animateMotion>
</use><path id="path21" d="M 1768.6195646647993 90.1512908582821
c 0 35.23489738237949 -8.621304678667322 10.120662014087726 -18.74196669275505 10.120662014087726
S 1731.135631279289 125.3861882406616 1731.135631279289 90.1512908582821
s 8.621304678667322 -10.120662014087726 18.74196669275505 -10.120662014087726
S 1768.6195646647993 54.9163934759026 1768.6195646647993 90.1512908582821
z" fill="none" stroke="none"></path>
<use xlink:href="#path-5eeu484j7jl-1" x="0" y="0" stroke="#94abc2">
  <animateMotion begin="-8.262430816516309s" dur="14.285714285714285s" keyPoints="1;0" keyTimes="0;1" repeatCount="indefinite" calcMode="linear">
    <mpath xlink:href="#path21"></mpath>
  </animateMotion>
</use><path id="path22" d="M 1875.7433355671615 1171.6135064472883
c 0 30.40466633082623 -7.439439634138332 8.73325522268413 -16.172694856822464 8.73325522268413
S 1843.3979458535164 1202.0181727781146 1843.3979458535164 1171.6135064472883
s 7.439439634138332 -8.73325522268413 16.172694856822464 -8.73325522268413
S 1875.7433355671615 1141.208840116462 1875.7433355671615 1171.6135064472883
z" fill="none" stroke="none"></path>
<use xlink:href="#path-5eeu484j7jl-3" x="0" y="0" stroke="#54d474">
  <animateMotion begin="-9.551852849280785s" dur="14.285714285714285s" keyPoints="1;0" keyTimes="0;1" repeatCount="indefinite" calcMode="linear">
    <mpath xlink:href="#path22"></mpath>
  </animateMotion>
</use><path id="path23" d="M 1964.7748785724598 116.20599949641658
c 0 61.63004048327459 -15.079690756545908 17.70224567072781 -32.78193642727372 17.70224567072781
S 1899.2110057179125 177.83603997969118 1899.2110057179125 116.20599949641658
s 15.079690756545908 -17.70224567072781 32.78193642727372 -17.70224567072781
S 1964.7748785724598 54.57595901314199 1964.7748785724598 116.20599949641658
z" fill="none" stroke="none"></path>
<use xlink:href="#path-5eeu484j7jl-2" x="0" y="0" stroke="#39bf5b">
  <animateMotion begin="-4.9613072442443125s" dur="14.285714285714285s" keyPoints="1;0" keyTimes="0;1" repeatCount="indefinite" calcMode="linear">
    <mpath xlink:href="#path23"></mpath>
  </animateMotion>
</use><path id="path24" d="M 2037.865880028266 1570.6973364676278
c 0 56.168697826566074 -13.743404787351272 16.133562141673234 -29.876966929024505 16.133562141673234
S 1978.111946170217 1626.866034294194 1978.111946170217 1570.6973364676278
s 13.743404787351272 -16.133562141673234 29.876966929024505 -16.133562141673234
S 2037.865880028266 1514.5286386410617 2037.865880028266 1570.6973364676278
z" fill="none" stroke="none"></path>
<use xlink:href="#path-5eeu484j7jl-2" x="0" y="0" stroke="#39bf5b">
  <animateMotion begin="-6.350967356878066s" dur="14.285714285714285s" keyPoints="0;1" keyTimes="0;1" repeatCount="indefinite" calcMode="linear">
    <mpath xlink:href="#path24"></mpath>
  </animateMotion>
</use><path id="path25" d="M 2059.8629802910764 1463.429055427762
c 0 33.65981555608509 -8.235912316914437 9.668244893769122 -17.90415721068356 9.668244893769122
S 2024.0546658697092 1497.088870983847 2024.0546658697092 1463.429055427762
s 8.235912316914437 -9.668244893769122 17.90415721068356 -9.668244893769122
S 2059.8629802910764 1429.769239871677 2059.8629802910764 1463.429055427762
z" fill="none" stroke="none"></path>
<use xlink:href="#path-5eeu484j7jl-1" x="0" y="0" stroke="#94abc2">
  <animateMotion begin="-2.1900042312200565s" dur="14.285714285714285s" keyPoints="1;0" keyTimes="0;1" repeatCount="indefinite" calcMode="linear">
    <mpath xlink:href="#path25"></mpath>
  </animateMotion>
</use><path id="path26" d="M 2135.6895713653594 999.1524284125836
c 0 26.624158909370646 -6.514421860803456 7.6473647931171005 -14.161786653920556 7.6473647931171005
S 2107.3659980575185 1025.7765873219544 2107.3659980575185 999.1524284125836
s 6.514421860803456 -7.6473647931171005 14.161786653920556 -7.6473647931171005
S 2135.6895713653594 972.528269503213 2135.6895713653594 999.1524284125836
z" fill="none" stroke="none"></path>
<use xlink:href="#path-5eeu484j7jl-2" x="0" y="0" stroke="#54d474">
  <animateMotion begin="-11.60970014691505s" dur="14.285714285714285s" keyPoints="0;1" keyTimes="0;1" repeatCount="indefinite" calcMode="linear">
    <mpath xlink:href="#path26"></mpath>
  </animateMotion>
</use><path id="path27" d="M 2229.710031532532 1284.7885629295342
c 0 48.302170517579135 -11.818616190471488 13.874027701857838 -25.692643892329325 13.874027701857838
S 2178.3247437478735 1333.0907334471133 2178.3247437478735 1284.7885629295342
s 11.818616190471488 -13.874027701857838 25.692643892329325 -13.874027701857838
S 2229.710031532532 1236.4863924119552 2229.710031532532 1284.7885629295342
z" fill="none" stroke="none"></path>
<use xlink:href="#path-5eeu484j7jl-1" x="0" y="0" stroke="#94abc2">
  <animateMotion begin="-10.250160516211821s" dur="14.285714285714285s" keyPoints="0;1" keyTimes="0;1" repeatCount="indefinite" calcMode="linear">
    <mpath xlink:href="#path27"></mpath>
  </animateMotion>
</use><path id="path28" d="M 2321.2152310064494 1934.8018512394626
c 0 22.855375113067467 -5.592272634048422 6.564841787795975 -12.157114421844398 6.564841787795975
S 2296.901002162761 1957.6572263525302 2296.901002162761 1934.8018512394626
s 5.592272634048422 -6.564841787795975 12.157114421844398 -6.564841787795975
S 2321.2152310064494 1911.946476126395 2321.2152310064494 1934.8018512394626
z" fill="none" stroke="none"></path>
<use xlink:href="#path-5eeu484j7jl-3" x="0" y="0" stroke="#39bf5b">
  <animateMotion begin="-12.056782886720457s" dur="14.285714285714285s" keyPoints="1;0" keyTimes="0;1" repeatCount="indefinite" calcMode="linear">
    <mpath xlink:href="#path28"></mpath>
  </animateMotion>
</use><path id="path29" d="M 2376.5069037211456 308.6795677963876
c 0 32.67387369206106 -7.994671222525577 9.38504882644307 -17.379720048968647 9.38504882644307
S 2341.7474636232087 341.35344148844865 2341.7474636232087 308.6795677963876
s 7.994671222525577 -9.38504882644307 17.379720048968647 -9.38504882644307
S 2376.5069037211456 276.0056941043265 2376.5069037211456 308.6795677963876
z" fill="none" stroke="none"></path>
<use xlink:href="#path-5eeu484j7jl-1" x="0" y="0" stroke="#39bf5b">
  <animateMotion begin="-10.648518249100142s" dur="14.285714285714285s" keyPoints="1;0" keyTimes="0;1" repeatCount="indefinite" calcMode="linear">
    <mpath xlink:href="#path29"></mpath>
  </animateMotion>
</use><path id="path30" d="M 2476.773925454203 1064.695547328303
c 0 48.56471212330226 -11.882855093999487 13.949438588608094 -25.83229368260758 13.949438588608094
S 2425.109338088988 1113.2602594516054 2425.109338088988 1064.695547328303
s 11.882855093999487 -13.949438588608094 25.83229368260758 -13.949438588608094
S 2476.773925454203 1016.1308352050008 2476.773925454203 1064.695547328303
z" fill="none" stroke="none"></path>
<use xlink:href="#path-5eeu484j7jl-1" x="0" y="0" stroke="#54d474">
  <animateMotion begin="-8.75017962323991s" dur="14.285714285714285s" keyPoints="1;0" keyTimes="0;1" repeatCount="indefinite" calcMode="linear">
    <mpath xlink:href="#path30"></mpath>
  </animateMotion>
</use><path id="path31" d="M 2557.2075541839313 1099.3867114544664
c 0 56.548173116855644 -13.836255124337018 16.242560363352155 -30.078815487689173 16.242560363352155
S 2497.049923208553 1155.934884571322 2497.049923208553 1099.3867114544664
s 13.836255124337018 -16.242560363352155 30.078815487689173 -16.242560363352155
S 2557.2075541839313 1042.8385383376108 2557.2075541839313 1099.3867114544664
z" fill="none" stroke="none"></path>
<use xlink:href="#path-5eeu484j7jl-1" x="0" y="0" stroke="#39bf5b">
  <animateMotion begin="-5.649469565086385s" dur="14.285714285714285s" keyPoints="1;0" keyTimes="0;1" repeatCount="indefinite" calcMode="linear">
    <mpath xlink:href="#path31"></mpath>
  </animateMotion>
</use><path id="path32" d="M 2680.3925129747663 777.2114867957647
c 0 42.279247540855884 -10.344922270634948 12.144039187267115 -22.488961457902064 12.144039187267115
S 2635.4145900589624 819.4907343366206 2635.4145900589624 777.2114867957647
s 10.344922270634948 -12.144039187267115 22.488961457902064 -12.144039187267115
S 2680.3925129747663 734.9322392549088 2680.3925129747663 777.2114867957647
z" fill="none" stroke="none"></path>
<use xlink:href="#path-5eeu484j7jl-1" x="0" y="0" stroke="#94abc2">
  <animateMotion begin="-2.722790460846377s" dur="14.285714285714285s" keyPoints="0;1" keyTimes="0;1" repeatCount="indefinite" calcMode="linear">
    <mpath xlink:href="#path32"></mpath>
  </animateMotion>
</use><path id="path33" d="M 2676.7945160798035 748.4631435097076
c 0 22.957059621820765 -5.617152886190186 6.594049040310219 -12.211201926500406 6.594049040310219
S 2652.3721122268025 771.4202031315284 2652.3721122268025 748.4631435097076
s 5.617152886190186 -6.594049040310219 12.211201926500406 -6.594049040310219
S 2676.7945160798035 725.5060838878868 2676.7945160798035 748.4631435097076
z" fill="none" stroke="none"></path>
<use xlink:href="#path-5eeu484j7jl-1" x="0" y="0" stroke="#94abc2">
  <animateMotion begin="-7.626824819302901s" dur="14.285714285714285s" keyPoints="0;1" keyTimes="0;1" repeatCount="indefinite" calcMode="linear">
    <mpath xlink:href="#path33"></mpath>
  </animateMotion>
</use><path id="path34" d="M 2771.4645209100877 404.0280872246074
c 0 30.548436827311644 -7.474617521576252 8.774551003589515 -16.249168525165768 8.774551003589515
S 2738.9661838597563 434.5765240519191 2738.9661838597563 404.0280872246074
s 7.474617521576252 -8.774551003589515 16.249168525165768 -8.774551003589515
S 2771.4645209100877 373.47965039729576 2771.4645209100877 404.0280872246074
z" fill="none" stroke="none"></path>
<use xlink:href="#path-5eeu484j7jl-1" x="0" y="0" stroke="#54d474">
  <animateMotion begin="-0.3422592040268243s" dur="14.285714285714285s" keyPoints="1;0" keyTimes="0;1" repeatCount="indefinite" calcMode="linear">
    <mpath xlink:href="#path34"></mpath>
  </animateMotion>
</use><path id="path35" d="M 2878.1386389232084 957.8247470134339
c 0 61.03671837930292 -14.934516199191139 17.53182336426786 -32.466339563459 17.53182336426786
S 2813.2059597962907 1018.8614653927368 2813.2059597962907 957.8247470134339
s 14.934516199191139 -17.53182336426786 32.466339563459 -17.53182336426786
S 2878.1386389232084 896.788028634131 2878.1386389232084 957.8247470134339
z" fill="none" stroke="none"></path>
<use xlink:href="#path-5eeu484j7jl-2" x="0" y="0" stroke="#94abc2">
  <animateMotion begin="-2.647490425049015s" dur="14.285714285714285s" keyPoints="0;1" keyTimes="0;1" repeatCount="indefinite" calcMode="linear">
    <mpath xlink:href="#path35"></mpath>
  </animateMotion>
</use><path id="path36" d="M 2974.8123976321876 984.3639620664427
c 0 27.71643484284983 -6.781680865803681 7.9611036250738865 -14.742784490877568 7.9611036250738865
S 2945.3268286504326 1012.0803969092925 2945.3268286504326 984.3639620664427
s 6.781680865803681 -7.9611036250738865 14.742784490877568 -7.9611036250738865
S 2974.8123976321876 956.6475272235929 2974.8123976321876 984.3639620664427
z" fill="none" stroke="none"></path>
<use xlink:href="#path-5eeu484j7jl-2" x="0" y="0" stroke="#54d474">
  <animateMotion begin="-5.918654172077531s" dur="14.285714285714285s" keyPoints="0;1" keyTimes="0;1" repeatCount="indefinite" calcMode="linear">
    <mpath xlink:href="#path36"></mpath>
  </animateMotion>
</use></g>
</svg>